<svg xmlns="http://www.w3.org/2000/svg" data-name="Capa 2" viewBox="0 0 593.2 107.94"><path d="M58.88 0h9.53v44.45h24.8v8.47H58.89V0Zm45.59 8.17H87.91V0h42.64v8.17h-16.56v44.76h-9.52zm33.79-.21V0h34.93v8.09h-25.4m0 36.51h25.4v8.32h-34.93V44.6m0-22.6h34.93v8.17h-34.93m174.09 26.7c4.08 1.94 7.3 4.86 9.64 8.77s3.52 8.71 3.52 14.4-1.17 10.63-3.52 14.67c-2.34 4.03-5.57 7.07-9.68 9.11s-8.73 3.06-13.87 3.06h-16.33V53.96h16.33c5.19 0 9.83.97 13.91 2.91m-20.64 5.63v35.76h6.58c11.44 0 17.16-6.07 17.16-18.22 0-6.1-1.44-10.55-4.31-13.34-2.87-2.8-7.16-4.2-12.85-4.2zm103.64-9.68c3.83 0 7.18.62 10.05 1.85 2.87 1.24 5.09 2.99 6.65 5.25q2.34 3.405 2.34 7.86c0 3.28-.78 5.93-2.34 7.98s-3.44 3.6-5.63 4.69c-2.19 1.08-5.1 2.26-8.73 3.52-3.58 1.26-6.22 2.46-7.94 3.59-1.71 1.13-2.57 2.71-2.57 4.72s.82 3.82 2.46 5.1c1.64 1.29 4.12 1.93 7.45 1.93 2.57 0 5.22-.39 7.94-1.17s5.29-1.83 7.71-3.14l3.1 7.79c-2.52 1.56-5.46 2.78-8.81 3.67-3.35.88-6.67 1.32-9.94 1.32-3.98 0-7.49-.66-10.51-1.97s-5.35-3.18-6.99-5.59-2.46-5.24-2.46-8.47.78-5.53 2.34-7.52 3.4-3.53 5.52-4.61 4.94-2.28 8.47-3.59c2.62-1.01 4.62-1.84 6.01-2.49s2.56-1.49 3.52-2.49q1.44-1.515 1.44-3.63c0-2.07-.8-3.7-2.42-4.91-1.61-1.21-3.86-1.81-6.73-1.81-2.12 0-4.33.39-6.65 1.17s-4.43 1.85-6.35 3.21l-4.01-7.11c2.07-1.46 4.54-2.68 7.41-3.67 2.87-.98 6.1-1.47 9.68-1.47Zm39.01 54.06h-9.53V53.96h9.53zm46.73-52.28c3.12 1.19 5.77 2.66 7.94 4.42l-4.76 6.88c-4.08-2.92-8.67-4.38-13.76-4.38s-8.96 1.6-11.91 4.8-4.42 7.85-4.42 13.95c0 4.03.67 7.47 2 10.32 1.34 2.85 3.19 5 5.56 6.46q3.555 2.19 8.16 2.19c2.52 0 4.72-.39 6.62-1.17 1.89-.78 3.41-1.75 4.57-2.91V84.2h-14.06v-7.71h23.21v23.29c-2.27 2.47-5.19 4.45-8.77 5.93-3.58 1.49-7.53 2.23-11.87 2.23s-8.73-.98-12.59-2.95-6.97-4.99-9.34-9.07-3.55-9.15-3.55-15.2 1.15-11.09 3.44-15.27 5.42-7.33 9.37-9.45c3.96-2.12 8.43-3.18 13.42-3.18 4.03 0 7.61.59 10.74 1.78m32.79 5.81 22.09 30.06V53.95h9.6v52.92h-8.01l-23.68-31.91m-3.31-4.45v36.36h-9.53V53.95h9.53m74.09.35c2.87.98 5.34 2.21 7.41 3.67l-4.01 7.11a24.3 24.3 0 0 0-6.35-3.21c-2.32-.78-4.54-1.17-6.65-1.17-2.87 0-5.12.6-6.73 1.81s-2.42 2.85-2.42 4.91q0 2.115 1.44 3.63c.96 1.01 2.13 1.84 3.52 2.49 1.39.66 3.39 1.49 6.01 2.49 3.53 1.31 6.35 2.51 8.47 3.59s3.96 2.62 5.52 4.61 2.34 4.5 2.34 7.52c0 3.23-.82 6.05-2.46 8.47s-3.97 4.28-6.99 5.59-6.53 1.97-10.51 1.97c-3.28 0-6.59-.44-9.94-1.32s-6.29-2.1-8.81-3.67l3.1-7.79c2.42 1.31 4.99 2.36 7.71 3.14s5.37 1.17 7.94 1.17c3.33 0 5.81-.64 7.45-1.93 1.64-1.28 2.46-2.99 2.46-5.1s-.86-3.59-2.57-4.72-4.36-2.33-7.94-3.59c-3.63-1.26-6.54-2.43-8.73-3.52-2.19-1.08-4.07-2.65-5.63-4.69s-2.34-4.7-2.34-7.98q0-4.455 2.34-7.86c2.34-3.405 3.78-4.02 6.65-5.25s6.22-1.85 10.05-1.85c3.58 0 6.8.49 9.68 1.47ZM50.43 52.92H40.07L25.02 10.43 10.43 52.92H0L20.11 0h10.28l20.03 52.92Zm179.65 0h-10.36l-15.04-42.49-14.59 42.49h-10.43L199.76 0h10.28l20.03 52.92ZM236.54 0v52.92h9.76V0zm20.57 23.59L279.03 0h-11.94l-16.71 19.02v11.75l17.92 22.15h12.32zm76.75 38.32v-7.96h34.93v8.09h-25.4m-.01 36.52h25.4v8.32h-34.93v-8.32m.01-22.6h34.93v8.17h-34.93" data-name="Capa 1" style="fill:#fff"/></svg>